<mxfile host="65bd71144e">
    <diagram id="PGHG4nc1CWV9bBlslM32" name="Page-1">
        <mxGraphModel dx="2304" dy="531" grid="1" gridSize="10" guides="1" tooltips="1" connect="1" arrows="1" fold="1" page="1" pageScale="1" pageWidth="1100" pageHeight="850" background="#ffffff" math="0" shadow="0">
            <root>
                <mxCell id="0"/>
                <mxCell id="1" parent="0"/>
                <mxCell id="6" style="edgeStyle=none;html=1;exitX=0.5;exitY=0;exitDx=0;exitDy=0;strokeColor=#000000;endArrow=none;endFill=0;entryX=0.5;entryY=1;entryDx=0;entryDy=0;strokeWidth=4;" edge="1" parent="1" source="2" target="8">
                    <mxGeometry relative="1" as="geometry">
                        <mxPoint x="210" y="200" as="targetPoint"/>
                    </mxGeometry>
                </mxCell>
                <mxCell id="14" style="edgeStyle=none;html=1;exitX=0;exitY=0.25;exitDx=0;exitDy=0;entryX=0.991;entryY=0.65;entryDx=0;entryDy=0;entryPerimeter=0;endArrow=none;endFill=0;strokeColor=#000000;strokeWidth=4;" edge="1" parent="1" source="2" target="9">
                    <mxGeometry relative="1" as="geometry"/>
                </mxCell>
                <mxCell id="15" style="edgeStyle=none;html=1;exitX=0;exitY=0.5;exitDx=0;exitDy=0;entryX=1;entryY=0.5;entryDx=0;entryDy=0;endArrow=none;endFill=0;strokeColor=#000000;strokeWidth=4;" edge="1" parent="1" source="2" target="10">
                    <mxGeometry relative="1" as="geometry"/>
                </mxCell>
                <mxCell id="16" style="edgeStyle=none;html=1;exitX=0;exitY=1;exitDx=0;exitDy=0;entryX=0.8;entryY=0.117;entryDx=0;entryDy=0;entryPerimeter=0;endArrow=none;endFill=0;strokeColor=#000000;strokeWidth=4;" edge="1" parent="1" source="2" target="11">
                    <mxGeometry relative="1" as="geometry"/>
                </mxCell>
                <mxCell id="17" style="edgeStyle=none;html=1;exitX=0.25;exitY=1;exitDx=0;exitDy=0;entryX=0.636;entryY=0;entryDx=0;entryDy=0;entryPerimeter=0;endArrow=none;endFill=0;strokeColor=#000000;strokeWidth=4;" edge="1" parent="1" source="2" target="12">
                    <mxGeometry relative="1" as="geometry"/>
                </mxCell>
                <mxCell id="20" style="edgeStyle=none;html=1;exitX=1;exitY=0.5;exitDx=0;exitDy=0;entryX=0;entryY=0.5;entryDx=0;entryDy=0;endArrow=none;endFill=0;strokeColor=#000000;strokeWidth=4;" edge="1" parent="1" source="2" target="19">
                    <mxGeometry relative="1" as="geometry"/>
                </mxCell>
                <mxCell id="2" value="Player" style="rounded=1;whiteSpace=wrap;html=1;fillColor=#1ba1e2;strokeColor=#006EAF;fontColor=#ffffff;" vertex="1" parent="1">
                    <mxGeometry x="10" y="240" width="120" height="60" as="geometry"/>
                </mxCell>
                <mxCell id="4" value="Game" style="rounded=1;whiteSpace=wrap;html=1;fillColor=#1ba1e2;strokeColor=#006EAF;fontColor=#ffffff;" vertex="1" parent="1">
                    <mxGeometry x="640" y="240" width="120" height="60" as="geometry"/>
                </mxCell>
                <mxCell id="8" value="&lt;b&gt;&lt;u&gt;ID&lt;/u&gt;&lt;/b&gt;" style="ellipse;whiteSpace=wrap;html=1;fillColor=#1ba1e2;strokeColor=#006EAF;fontColor=#ffffff;" vertex="1" parent="1">
                    <mxGeometry x="-130" y="60" width="110" height="60" as="geometry"/>
                </mxCell>
                <mxCell id="9" value="&lt;u&gt;email&lt;/u&gt;" style="ellipse;whiteSpace=wrap;html=1;fillColor=#1ba1e2;strokeColor=#006EAF;fontColor=#ffffff;" vertex="1" parent="1">
                    <mxGeometry x="-240" y="160" width="110" height="60" as="geometry"/>
                </mxCell>
                <mxCell id="10" value="&lt;u&gt;username&lt;/u&gt;" style="ellipse;whiteSpace=wrap;html=1;fillColor=#1ba1e2;strokeColor=#006EAF;fontColor=#ffffff;" vertex="1" parent="1">
                    <mxGeometry x="-240" y="280" width="110" height="60" as="geometry"/>
                </mxCell>
                <mxCell id="11" value="password" style="ellipse;whiteSpace=wrap;html=1;fillColor=#1ba1e2;strokeColor=#006EAF;fontColor=#ffffff;" vertex="1" parent="1">
                    <mxGeometry x="-220" y="380" width="110" height="60" as="geometry"/>
                </mxCell>
                <mxCell id="12" value="Score" style="ellipse;whiteSpace=wrap;html=1;fillColor=#1ba1e2;strokeColor=#006EAF;fontColor=#ffffff;" vertex="1" parent="1">
                    <mxGeometry x="-120" y="450" width="110" height="60" as="geometry"/>
                </mxCell>
                <mxCell id="21" style="edgeStyle=none;html=1;exitX=1;exitY=0.5;exitDx=0;exitDy=0;entryX=0;entryY=0.5;entryDx=0;entryDy=0;endArrow=none;endFill=0;strokeColor=#000000;strokeWidth=4;" edge="1" parent="1" source="19" target="4">
                    <mxGeometry relative="1" as="geometry"/>
                </mxCell>
                <mxCell id="24" value="" style="edgeStyle=none;html=1;endArrow=none;endFill=0;strokeColor=#000000;strokeWidth=4;" edge="1" parent="1" source="19" target="23">
                    <mxGeometry relative="1" as="geometry"/>
                </mxCell>
                <mxCell id="19" value="Plays" style="rhombus;whiteSpace=wrap;html=1;fillColor=#1ba1e2;strokeColor=#006EAF;fontColor=#ffffff;" vertex="1" parent="1">
                    <mxGeometry x="300" y="230" width="150" height="80" as="geometry"/>
                </mxCell>
                <mxCell id="23" value="time_of_game" style="ellipse;whiteSpace=wrap;html=1;fillColor=#1ba1e2;strokeColor=#006EAF;fontColor=#ffffff;" vertex="1" parent="1">
                    <mxGeometry x="320" y="425" width="110" height="60" as="geometry"/>
                </mxCell>
                <mxCell id="26" style="edgeStyle=none;html=1;exitX=0.5;exitY=1;exitDx=0;exitDy=0;entryX=0.5;entryY=0;entryDx=0;entryDy=0;endArrow=none;endFill=0;strokeColor=#000000;strokeWidth=4;" edge="1" parent="1" source="25" target="4">
                    <mxGeometry relative="1" as="geometry"/>
                </mxCell>
                <mxCell id="25" value="&lt;u&gt;&lt;b&gt;ID&lt;/b&gt;&lt;/u&gt;" style="ellipse;whiteSpace=wrap;html=1;fillColor=#1ba1e2;strokeColor=#006EAF;fontColor=#ffffff;" vertex="1" parent="1">
                    <mxGeometry x="645" y="50" width="110" height="60" as="geometry"/>
                </mxCell>
            </root>
        </mxGraphModel>
    </diagram>
</mxfile>